<?xml version="1.0" standalone="no"?>
<!DOCTYPE svg PUBLIC "-//W3C//DTD SVG 20010904//EN"
 "http://www.w3.org/TR/2001/REC-SVG-20010904/DTD/svg10.dtd">
<svg version="1.0" xmlns="http://www.w3.org/2000/svg"
 width="1200.000000pt" height="1200.000000pt" viewBox="0 0 1200.000000 1200.000000"
 preserveAspectRatio="xMidYMid meet">
<metadata>
Created by potrace 1.14, written by Peter Selinger 2001-2017
</metadata>
<g transform="translate(0.000000,1200.000000) scale(0.100000,-0.100000)"
fill="#000000" stroke="none">
<path d="M5830 11994 c-708 -23 -1407 -167 -2055 -425 l-160 -64 193 -3 192
-2 0 -250 0 -250 -250 0 -250 0 -2 226 -3 226 -197 -100 c-422 -213 -825 -481
-1190 -792 l-108 -91 0 -235 0 -234 250 0 250 0 0 -250 0 -250 -250 0 -250 0
0 -500 0 -500 -250 0 -250 0 0 500 0 500 -187 -2 -186 -3 -89 -130 c-521 -761
-868 -1675 -983 -2588 -36 -291 -47 -475 -47 -777 0 -491 49 -923 159 -1393
l25 -107 154 0 154 0 0 -250 0 -250 750 0 750 0 0 250 0 250 500 0 500 0 0
-1750 0 -1750 -157 0 -158 0 25 -20 c76 -58 427 -257 635 -360 675 -333 1331
-519 2105 -597 219 -22 858 -25 1015 -5 55 7 192 24 305 37 907 111 1831 460
2595 983 l130 89 3 186 2 187 236 0 236 0 252 253 c303 302 496 531 709 838
l67 97 0 156 0 156 98 0 97 0 82 152 c243 456 408 878 533 1363 73 284 160
799 160 945 l0 40 -735 0 -735 0 0 250 0 250 -500 0 -500 0 0 -250 0 -250
-250 0 -250 0 0 -250 0 -250 -250 0 -250 0 0 1500 0 1500 500 0 500 0 0 250 0
250 750 0 750 0 0 -250 0 -250 325 0 c179 0 325 4 325 8 0 4 -24 70 -54 147
-235 614 -566 1172 -1012 1710 -139 167 -552 580 -719 719 -815 675 -1705
1102 -2713 1300 -400 79 -921 122 -1322 110z m670 -1244 l0 -250 -250 0 -250
0 0 250 0 250 250 0 250 0 0 -250z m2500 -500 l0 -250 -250 0 -250 0 0 250 0
250 250 0 250 0 0 -250z m-1500 -2500 l0 -250 250 0 250 0 0 -500 0 -500 -500
0 -500 0 0 -500 0 -500 250 0 250 0 0 250 0 250 250 0 250 0 0 -2000 0 -2000
-250 0 -250 0 0 -250 0 -250 -1250 0 -1250 0 0 -250 0 -250 -750 0 -750 0 0
2000 0 2000 -250 0 -250 0 0 500 0 500 250 0 250 0 0 500 0 500 250 0 250 0 0
250 0 250 500 0 500 0 0 250 0 250 1250 0 1250 0 0 -250z m-5500 -500 l0 -250
-250 0 -250 0 0 250 0 250 250 0 250 0 0 -250z m-1000 -500 l0 -250 -250 0
-250 0 0 250 0 250 250 0 250 0 0 -250z m9000 -3000 l0 -250 -250 0 -250 0 0
250 0 250 250 0 250 0 0 -250z"/>
<path d="M4500 6000 l0 -500 250 0 250 0 0 250 0 250 250 0 250 0 0 250 0 250
-500 0 -500 0 0 -500z"/>
<path d="M6000 4250 l0 -250 500 0 500 0 0 250 0 250 -500 0 -500 0 0 -250z"/>
<path d="M5000 3250 l0 -250 250 0 250 0 0 -250 0 -250 750 0 750 0 0 250 0
250 -750 0 -750 0 0 250 0 250 -250 0 -250 0 0 -250z"/>
</g>
</svg>
